TITLE ""
FILE "1Q_t_0029-0038.mp3" MP3
  TRACK 01 AUDIO
    TITLE "1Q_t_0029-0038_01"
    INDEX 01 00:00:00
  TRACK 02 AUDIO
    TITLE "1Q_t_0029-0038_02"
    INDEX 01 00:01:12
  TRACK 03 AUDIO
    TITLE "1Q_t_0029-0038_03"
    INDEX 01 00:01:27
  TRACK 04 AUDIO
    TITLE "1Q_t_0029-0038_04"
    INDEX 01 00:02:62
  TRACK 05 AUDIO
    TITLE "1Q_t_0029-0038_05"
    INDEX 01 00:03:03
  TRACK 06 AUDIO
    TITLE "1Q_t_0029-0038_06"
    INDEX 01 00:11:32
  TRACK 07 AUDIO
    TITLE "1Q_t_0029-0038_07"
    INDEX 01 00:12:12
  TRACK 08 AUDIO
    TITLE "1Q_t_0029-0038_08"
    INDEX 01 00:13:48
  TRACK 09 AUDIO
    TITLE "1Q_t_0029-0038_09"
    INDEX 01 00:13:64
  TRACK 10 AUDIO
    TITLE "1Q_t_0029-0038_10"
    INDEX 01 00:15:33
  TRACK 11 AUDIO
    TITLE "1Q_t_0029-0038_11"
    INDEX 01 00:15:49
  TRACK 12 AUDIO
    TITLE "1Q_t_0029-0038_12"
    INDEX 01 00:22:02
  TRACK 13 AUDIO
    TITLE "1Q_t_0029-0038_13"
    INDEX 01 00:22:55
  TRACK 14 AUDIO
    TITLE "1Q_t_0029-0038_14"
    INDEX 01 00:23:66
  TRACK 15 AUDIO
    TITLE "1Q_t_0029-0038_15"
    INDEX 01 00:24:07
  TRACK 16 AUDIO
    TITLE "1Q_t_0029-0038_16"
    INDEX 01 00:28:20
  TRACK 17 AUDIO
    TITLE "1Q_t_0029-0038_17"
    INDEX 01 00:28:34
  TRACK 18 AUDIO
    TITLE "1Q_t_0029-0038_18"
    INDEX 01 00:33:23
  TRACK 19 AUDIO
    TITLE "1Q_t_0029-0038_19"
    INDEX 01 00:34:01
  TRACK 20 AUDIO
    TITLE "1Q_t_0029-0038_20"
    INDEX 01 00:35:13
  TRACK 21 AUDIO
    TITLE "1Q_t_0029-0038_21"
    INDEX 01 00:35:30
  TRACK 22 AUDIO
    TITLE "1Q_t_0029-0038_22"
    INDEX 01 00:36:57
  TRACK 23 AUDIO
    TITLE "1Q_t_0029-0038_23"
    INDEX 01 00:36:71
  TRACK 24 AUDIO
    TITLE "1Q_t_0029-0038_24"
    INDEX 01 00:42:60
  TRACK 25 AUDIO
    TITLE "1Q_t_0029-0038_25"
    INDEX 01 00:43:36
  TRACK 26 AUDIO
    TITLE "1Q_t_0029-0038_26"
    INDEX 01 00:44:33
  TRACK 27 AUDIO
    TITLE "1Q_t_0029-0038_27"
    INDEX 01 00:44:49
  TRACK 28 AUDIO
    TITLE "1Q_t_0029-0038_28"
    INDEX 01 00:48:23
  TRACK 29 AUDIO
    TITLE "1Q_t_0029-0038_29"
    INDEX 01 00:48:37
  TRACK 30 AUDIO
    TITLE "1Q_t_0029-0038_30"
    INDEX 01 00:53:12
  TRACK 31 AUDIO
    TITLE "1Q_t_0029-0038_31"
    INDEX 01 00:53:65
  TRACK 32 AUDIO
    TITLE "1Q_t_0029-0038_32"
    INDEX 01 00:54:73
  TRACK 33 AUDIO
    TITLE "1Q_t_0029-0038_33"
    INDEX 01 00:55:13
  TRACK 34 AUDIO
    TITLE "1Q_t_0029-0038_34"
    INDEX 01 00:57:30
  TRACK 35 AUDIO
    TITLE "1Q_t_0029-0038_35"
    INDEX 01 00:57:46
  TRACK 36 AUDIO
    TITLE "1Q_t_0029-0038_36"
    INDEX 01 01:01:53
  TRACK 37 AUDIO
    TITLE "1Q_t_0029-0038_37"
    INDEX 01 01:02:33
  TRACK 38 AUDIO
    TITLE "1Q_t_0029-0038_38"
    INDEX 01 01:03:30
  TRACK 39 AUDIO
    TITLE "1Q_t_0029-0038_39"
    INDEX 01 01:03:50
  TRACK 40 AUDIO
    TITLE "1Q_t_0029-0038_40"
    INDEX 01 01:04:59
  TRACK 41 AUDIO
    TITLE "1Q_t_0029-0038_41"
    INDEX 01 01:04:75
  TRACK 42 AUDIO
    TITLE "1Q_t_0029-0038_42"
    INDEX 01 01:09:11
  TRACK 43 AUDIO
    TITLE "1Q_t_0029-0038_43"
    INDEX 01 01:09:62
  TRACK 44 AUDIO
    TITLE "1Q_t_0029-0038_44"
    INDEX 01 01:11:10
  TRACK 45 AUDIO
    TITLE "1Q_t_0029-0038_45"
    INDEX 01 01:11:30
  TRACK 46 AUDIO
    TITLE "1Q_t_0029-0038_46"
    INDEX 01 01:14:67
  TRACK 47 AUDIO
    TITLE "1Q_t_0029-0038_47"
    INDEX 01 01:15:08
  TRACK 48 AUDIO
    TITLE "1Q_t_0029-0038_48"
    INDEX 01 01:21:01
  TRACK 49 AUDIO
    TITLE "1Q_t_0029-0038_49"
    INDEX 01 01:21:58
  TRACK 50 AUDIO
    TITLE "1Q_t_0029-0038_50"
    INDEX 01 01:22:63
  TRACK 51 AUDIO
    TITLE "1Q_t_0029-0038_51"
    INDEX 01 01:23:04
  TRACK 52 AUDIO
    TITLE "1Q_t_0029-0038_52"
    INDEX 01 01:26:08
  TRACK 53 AUDIO
    TITLE "1Q_t_0029-0038_53"
    INDEX 01 01:26:22
  TRACK 54 AUDIO
    TITLE "1Q_t_0029-0038_54"
    INDEX 01 01:31:35
  TRACK 55 AUDIO
    TITLE "1Q_t_0029-0038_55"
    INDEX 01 01:32:14
  TRACK 56 AUDIO
    TITLE "1Q_t_0029-0038_56"
    INDEX 01 01:33:26
  TRACK 57 AUDIO
    TITLE "1Q_t_0029-0038_57"
    INDEX 01 01:33:41
  TRACK 58 AUDIO
    TITLE "1Q_t_0029-0038_58"
    INDEX 01 01:36:36
  TRACK 59 AUDIO
    TITLE "1Q_t_0029-0038_59"
    INDEX 01 01:36:49
  TRACK 60 AUDIO
    TITLE "1Q_t_0029-0038_60"
    INDEX 01 01:44:18
